<svg xmlns="http://www.w3.org/2000/svg" width="20" height="20" viewBox="0 0 20 20">
  <g id="Search" fill="none">
    <path d="M13.11,14.28A8.045,8.045,0,1,1,14.283,13.1L20,18.825,18.826,20Z" stroke="none"/>
    <path d="M 8.036417961120605 14.58465385437012 C 9.538387298583984 14.58455467224121 11.00325775146484 14.0638542175293 12.16119766235352 13.11846446990967 L 12.68877410888672 12.68772983551025 L 13.11790752410889 12.15875434875488 C 14.129958152771 10.91123390197754 14.64395809173584 9.335264205932617 14.56521797180176 7.721164226531982 C 14.48595809936523 6.09636402130127 13.80871772766113 4.567434310913086 12.65823745727539 3.416024208068848 C 11.42367744445801 2.180454254150391 9.782358169555664 1.500004291534424 8.03660774230957 1.500004291534424 C 6.290867805480957 1.500004291534424 4.649527549743652 2.180464267730713 3.414967775344849 3.416024208068848 C 0.8656477332115173 5.967414379119873 0.865567684173584 10.1180944442749 3.414967775344849 12.66875457763672 C 4.649567604064941 13.90436458587646 6.290827751159668 14.58477401733398 8.036417961120605 14.58465385437012 M 18.82577705383301 20.00009346008301 L 13.10983753204346 14.28039455413818 C 9.953258514404297 16.85757446289062 5.296417713165283 16.67391395568848 2.353877782821655 13.72898387908936 C -0.7846223115921021 10.58893394470215 -0.7846223115921021 5.496844291687012 2.353877782821655 2.355794191360474 C 5.492387294769287 -0.785265326499939 10.58082675933838 -0.7852660417556763 13.71932792663574 2.355794191360474 C 16.65707778930664 5.295924186706543 16.84471702575684 9.945764541625977 14.28278732299805 13.10376453399658 L 20.00033760070801 18.82507514953613 L 18.82577705383301 20.00009346008301 Z" stroke="none" fill="#1c1f20"/>
  </g>
</svg>
