<svg xmlns="http://www.w3.org/2000/svg" xmlns:xlink="http://www.w3.org/1999/xlink" width="24" height="24" viewBox="0 0 24 24">
  <defs>
    <linearGradient id="linear-gradient" x1="0.741" y1="-0.286" x2="0.409" y2="1.141" gradientUnits="objectBoundingBox">
      <stop offset="0" stop-color="#9b2def"/>
      <stop offset="0.493" stop-color="#2d9bef"/>
      <stop offset="1" stop-color="#2dceef"/>
    </linearGradient>
  </defs>
  <path id="FLOW_ICON" data-name="FLOW ICON" d="M7.418.9A12.214,12.214,0,0,1,12.03,0a11.087,11.087,0,0,1,6.616,2.1,11.913,11.913,0,0,1,4.411,5.3,11.34,11.34,0,0,1,.7,6.8,11.319,11.319,0,0,1-3.208,6.1l-1.1-1A10.916,10.916,0,0,0,22.255,14a10.269,10.269,0,0,0-.6-6,9.717,9.717,0,0,0-3.91-4.6,10.779,10.779,0,0,0-5.814-1.8h0a9.28,9.28,0,0,0-4.01.8A9.76,9.76,0,0,0,4.611,4.5h0A12.269,12.269,0,0,0,2.306,7.8a10.852,10.852,0,0,0-.8,3.9A10.627,10.627,0,0,0,4.511,19l-1.1,1A11.314,11.314,0,0,1,0,11.8H0A11.278,11.278,0,0,1,.9,7.3,12.248,12.248,0,0,1,3.509,3.5,11.63,11.63,0,0,1,7.418.9Zm1.9,4.4a8.12,8.12,0,0,1,2.707-.5,7.571,7.571,0,0,1,5.113,2.1,6.714,6.714,0,0,1,2.105,5h0a7.058,7.058,0,0,1-2.105,4.9l-1.1-1.1a5.457,5.457,0,0,0,1.6-3.8,5.6,5.6,0,0,0-1.7-4,5.626,5.626,0,0,0-4.01-1.7h0a5.727,5.727,0,0,0-2.205.4,19.267,19.267,0,0,0-1.7,1.3,5.827,5.827,0,0,0-1.7,4.1,5.457,5.457,0,0,0,1.6,3.8l-1.1,1.1A7.315,7.315,0,0,1,4.712,12h0A7.7,7.7,0,0,1,6.917,6.9h0A7.78,7.78,0,0,1,9.323,5.3ZM12.832,24h-1.5V14.2a2.371,2.371,0,0,1-1.7-2.3,2.406,2.406,0,0,1,4.812,0,2.371,2.371,0,0,1-1.7,2.3V24Z" fill-rule="evenodd" fill="url(#linear-gradient)"/>
</svg>
