<svg xmlns="http://www.w3.org/2000/svg" width="24" height="24" viewBox="0 0 24 24">
  <g id="Home_Icon_selected_" data-name="Home Icon (selected)" fill="none">
    <path d="M14,24V16.377H10V24H2.7V14.223H0L12,0,24,14.223H21.3V24Z" stroke="none"/>
    <path d="M 19.79999923706055 22.5 L 19.79999923706055 12.72307968139648 L 20.77189636230469 12.72307968139648 L 12 2.326131105422974 L 3.228103399276733 12.72307968139648 L 4.199999809265137 12.72307968139648 L 4.199999809265137 22.5 L 8.5 22.5 L 8.5 14.87691974639893 L 15.5 14.87691974639893 L 15.5 22.5 L 19.79999923706055 22.5 M 21.29999923706055 24 L 14 24 L 14 16.37692070007324 L 10 16.37692070007324 L 10 24 L 2.700000047683716 24 L 2.700000047683716 14.22307968139648 L -1.77635683940025e-15 14.22307968139648 L 12 -1.77635683940025e-15 L 24 14.22307968139648 L 21.29999923706055 14.22307968139648 L 21.29999923706055 24 Z" stroke="none" fill="#99999f"/>
  </g>
</svg>
