<svg xmlns="http://www.w3.org/2000/svg" width="24" height="24" viewBox="0 0 24 24">
  <path id="Search_Icon" data-name="Search Icon" d="M9.836,17.6a8.408,8.408,0,0,0,4.918-1.5l.7-.5.6-.6a7.829,7.829,0,0,0-.3-11A8.722,8.722,0,0,0,9.836,1.6,8.283,8.283,0,0,0,3.914,4,7.555,7.555,0,0,0,1.506,9.6a7.95,7.95,0,0,0,2.409,5.6A8.722,8.722,0,0,0,9.836,17.6ZM22.783,24l-7.026-6.8A10.02,10.02,0,0,1,9.936,19a9.73,9.73,0,0,1-6.925-2.8,9.036,9.036,0,0,1-.1-13.4A9.73,9.73,0,0,1,9.836,0a9.73,9.73,0,0,1,6.925,2.8,9.275,9.275,0,0,1,.3,13.1l6.925,6.7Z" transform="translate(0.013)" fill="#99999f"/>
</svg>
