<svg xmlns="http://www.w3.org/2000/svg" xmlns:xlink="http://www.w3.org/1999/xlink" width="20" height="20" viewBox="0 0 20 20">
  <defs>
    <clipPath id="clip-path">
      <rect width="20" height="20" fill="none"/>
    </clipPath>
  </defs>
  <g id="Profile_20" data-name="Profile 20" clip-path="url(#clip-path)">
    <path id="Path_845" data-name="Path 845" d="M12.7,8.5A2.7,2.7,0,1,0,10,11.2,2.689,2.689,0,0,0,12.7,8.5Z" fill="none"/>
    <path id="Path_846" data-name="Path 846" d="M10,0A10,10,0,1,0,20,10,10.029,10.029,0,0,0,10,0Zm0,1.5A8.493,8.493,0,0,1,18.5,10a9.1,9.1,0,0,1-1.3,4.6A9.1,9.1,0,0,0,12.4,12,4.218,4.218,0,1,0,5.8,8.5a4.331,4.331,0,0,0,2,3.6,9.025,9.025,0,0,0-4.6,3.1,8.24,8.24,0,0,1-1.7-5.1A8.515,8.515,0,0,1,10,1.5Zm-2.7,7A2.7,2.7,0,1,1,10,11.2,2.689,2.689,0,0,1,7.3,8.5Zm2.7,10a8.765,8.765,0,0,1-5.7-2.2,8.436,8.436,0,0,1,4.8-3h.7a3.352,3.352,0,0,1,1,0,4.331,4.331,0,0,1,.5.1,8.016,8.016,0,0,1,5,2.5A9.268,9.268,0,0,1,10,18.5Z" fill="#fff"/>
  </g>
</svg>
