<svg xmlns="http://www.w3.org/2000/svg" xmlns:xlink="http://www.w3.org/1999/xlink" width="20" height="20" viewBox="0 0 20 20">
  <defs>
    <clipPath id="clip-path">
      <rect width="20" height="20" fill="none"/>
    </clipPath>
  </defs>
  <g id="Settings_20" data-name="Settings 20" clip-path="url(#clip-path)">
    <path id="Path_847" data-name="Path 847" d="M19.5,10.933a9.506,9.506,0,0,1-.919-1.215A5.281,5.281,0,0,1,19.3,8.5c.511-.608.817-1.013.511-1.62L18.788,4.757c-.2-.506-.817-.506-1.532-.608a5.367,5.367,0,0,1-1.43-.2,4.7,4.7,0,0,1-.409-1.418c0-.81-.1-1.316-.613-1.519L12.558.2c-.511-.2-.919.2-1.532.709A9.576,9.576,0,0,1,9.8,1.821a3.628,3.628,0,0,1-1.226-.81C7.962.606,7.451.3,6.94.5L4.8,1.517c-.409.2-.511.709-.511,1.519a5.235,5.235,0,0,1-.2,1.418,4.8,4.8,0,0,1-1.43.405c-.919.1-1.43.2-1.634.709L.3,7.795c-.2.506.1.911.613,1.519a9.506,9.506,0,0,1,.919,1.215,5.282,5.282,0,0,1-.715,1.215c-.511.608-.817,1.114-.511,1.62L1.629,15.49c.2.506.817.506,1.532.608a5.367,5.367,0,0,1,1.43.2A4.7,4.7,0,0,1,5,17.717c0,.81.1,1.316.613,1.519l2.247.81c.1,0,.2.1.306.1.409,0,.715-.3,1.226-.709a9.576,9.576,0,0,1,1.226-.911,5.35,5.35,0,0,1,1.226.709c.613.506,1.123.81,1.634.506l2.145-1.013c.511-.2.511-.81.613-1.519a5.235,5.235,0,0,1,.2-1.418,4.8,4.8,0,0,1,1.43-.405c.817-.1,1.328-.2,1.532-.709l.817-2.228C20.32,11.946,20.014,11.541,19.5,10.933Zm-1.43,2.936a.618.618,0,0,0-.409.1,4.345,4.345,0,0,0-2.349.81A3.483,3.483,0,0,0,14.7,17.11v.405l-1.634.709c-.1-.1-.2-.2-.306-.2-.715-.506-1.532-1.114-2.247-1.013A4.209,4.209,0,0,0,8.37,18.224c-.1,0-.2.1-.306.2l-1.532-.608a.6.6,0,0,0-.1-.405,4.475,4.475,0,0,0-.817-2.329,3.559,3.559,0,0,0-2.349-.608H2.855l-.817-1.519c.1-.1.2-.2.2-.3.511-.709,1.123-1.519,1.021-2.228,0-.709-.715-1.418-1.226-2.126,0-.1-.1-.2-.2-.3l.613-1.519a.618.618,0,0,0,.409-.1c1.021-.2,1.838-.3,2.247-.911a3.954,3.954,0,0,0,.715-2.329V2.732l1.532-.709c.1.1.2.2.306.2C8.37,2.732,9.187,3.339,9.9,3.238a4.209,4.209,0,0,0,2.145-1.215c.1,0,.2-.1.306-.2l1.532.608a.6.6,0,0,0,.1.405A4.475,4.475,0,0,0,14.8,5.162a3.559,3.559,0,0,0,2.349.608h.409l.817,1.519c-.1.1-.2.2-.2.3-.511.709-1.123,1.519-1.021,2.228,0,.709.715,1.519,1.226,2.126l.306.3Z" transform="translate(-0.237 -0.147)" fill="#fff"/>
    <path id="Path_848" data-name="Path 848" d="M11.5,6.5a3.906,3.906,0,0,0-3,.1,3.635,3.635,0,0,0-2,2.2,3.906,3.906,0,0,0,.1,3A3.947,3.947,0,0,0,10.1,14a3.167,3.167,0,0,0,1.6-.4,3.635,3.635,0,0,0,2-2.2,3.906,3.906,0,0,0-.1-3A3.618,3.618,0,0,0,11.5,6.5Zm.9,4.5a2.211,2.211,0,0,1-1.2,1.3A2.409,2.409,0,0,1,8,11.1a2.007,2.007,0,0,1-.1-1.7A2.539,2.539,0,0,1,9.2,8a3.553,3.553,0,0,1,1-.2,1.949,1.949,0,0,1,.8.1,2.211,2.211,0,0,1,1.3,1.2A2.51,2.51,0,0,1,12.4,11Z" transform="translate(-0.026 -0.022)" fill="#fff"/>
  </g>
</svg>
