<svg xmlns="http://www.w3.org/2000/svg" width="83.603" height="66.291" viewBox="0 0 83.603 66.291">
  <g id="Group_990" data-name="Group 990" transform="translate(1.042 1.5)">
    <circle id="Ellipse_13" cx="20.16" cy="20.16" r="20.16" transform="translate(21.1)" fill="none" stroke="#fff" stroke-width="3"/>
    <g id="Ellipse_17551" transform="translate(-0.4 39.62)">
      <path id="Path_505" data-name="Path 505" d="M4.6,23.8A47.331,47.331,0,0,1,41.28.28C42.68.14,44.22,0,45.76,0c1.4,0,2.94,0,4.34.14A47.351,47.351,0,0,1,86.92,23.66" transform="translate(-4.6)" fill="none"/>
      <path id="Path_506" data-name="Path 506" d="M5.1,24.18c.14-.28.28-.42.42-.7a46.684,46.684,0,0,1,80.08,0c.14.28.28.42.42.7" transform="translate(-4.4 0.32)" fill="none" stroke="#fff" stroke-width="3"/>
    </g>
  </g>
</svg>
