<svg xmlns="http://www.w3.org/2000/svg" width="22" height="20" viewBox="0 0 22 20">
  <g id="Favorite_Songs" data-name="Favorite Songs" transform="translate(-0.55 -0.5)">
    <path id="Path_772" data-name="Path 772" d="M6.994,1.864a5.044,5.044,0,0,0-3.583,8.612l8.139,8.094,8.139-8.094A5.056,5.056,0,0,0,12.524,3.34l-.974.968-.974-.968A5.048,5.048,0,0,0,6.994,1.864M6.994.5A6.442,6.442,0,0,1,11.55,2.377a6.426,6.426,0,0,1,9.113,9.061L11.55,20.5,2.438,11.438A6.408,6.408,0,0,1,6.994.5Z" transform="translate(0 0)" fill="#fff"/>
  </g>
</svg>
